<svg id="visual" viewBox="0 0 900 600" width="900" height="600" xmlns="http://www.w3.org/2000/svg" xmlns:xlink="http://www.w3.org/1999/xlink" version="1.1"><rect x="0" y="0" width="900" height="600" fill="#ffffff"></rect><path d="M0 297L21.5 303.2C43 309.3 86 321.7 128.8 330.3C171.7 339 214.3 344 257.2 347.7C300 351.3 343 353.7 385.8 340.8C428.7 328 471.3 300 514.2 290C557 280 600 288 642.8 294.5C685.7 301 728.3 306 771.2 313.7C814 321.3 857 331.7 878.5 336.8L900 342L900 601L878.5 601C857 601 814 601 771.2 601C728.3 601 685.7 601 642.8 601C600 601 557 601 514.2 601C471.3 601 428.7 601 385.8 601C343 601 300 601 257.2 601C214.3 601 171.7 601 128.8 601C86 601 43 601 21.5 601L0 601Z" fill="#3b3e41"></path><path d="M0 316L21.5 321.8C43 327.7 86 339.3 128.8 338.7C171.7 338 214.3 325 257.2 334.7C300 344.3 343 376.7 385.8 379.2C428.7 381.7 471.3 354.3 514.2 341.7C557 329 600 331 642.8 335.7C685.7 340.3 728.3 347.7 771.2 350C814 352.3 857 349.7 878.5 348.3L900 347L900 601L878.5 601C857 601 814 601 771.2 601C728.3 601 685.7 601 642.8 601C600 601 557 601 514.2 601C471.3 601 428.7 601 385.8 601C343 601 300 601 257.2 601C214.3 601 171.7 601 128.8 601C86 601 43 601 21.5 601L0 601Z" fill="#2e3032"></path><path d="M0 430L21.5 433.3C43 436.7 86 443.3 128.8 441.7C171.7 440 214.3 430 257.2 429.3C300 428.7 343 437.3 385.8 435.3C428.7 433.3 471.3 420.7 514.2 418.3C557 416 600 424 642.8 430.5C685.7 437 728.3 442 771.2 442.7C814 443.3 857 439.7 878.5 437.8L900 436L900 601L878.5 601C857 601 814 601 771.2 601C728.3 601 685.7 601 642.8 601C600 601 557 601 514.2 601C471.3 601 428.7 601 385.8 601C343 601 300 601 257.2 601C214.3 601 171.7 601 128.8 601C86 601 43 601 21.5 601L0 601Z" fill="#212324"></path><path d="M0 484L21.5 476C43 468 86 452 128.8 454.7C171.7 457.3 214.3 478.7 257.2 491.2C300 503.7 343 507.3 385.8 506.3C428.7 505.3 471.3 499.7 514.2 496.7C557 493.7 600 493.3 642.8 488.5C685.7 483.7 728.3 474.3 771.2 468.3C814 462.3 857 459.7 878.5 458.3L900 457L900 601L878.5 601C857 601 814 601 771.2 601C728.3 601 685.7 601 642.8 601C600 601 557 601 514.2 601C471.3 601 428.7 601 385.8 601C343 601 300 601 257.2 601C214.3 601 171.7 601 128.8 601C86 601 43 601 21.5 601L0 601Z" fill="#151617"></path><path d="M0 528L21.5 528C43 528 86 528 128.8 532.8C171.7 537.7 214.3 547.3 257.2 546.5C300 545.7 343 534.3 385.8 527.3C428.7 520.3 471.3 517.7 514.2 524.2C557 530.7 600 546.3 642.8 548.7C685.7 551 728.3 540 771.2 537.5C814 535 857 541 878.5 544L900 547L900 601L878.5 601C857 601 814 601 771.2 601C728.3 601 685.7 601 642.8 601C600 601 557 601 514.2 601C471.3 601 428.7 601 385.8 601C343 601 300 601 257.2 601C214.3 601 171.7 601 128.8 601C86 601 43 601 21.5 601L0 601Z" fill="#030303"></path></svg>